{
  "accessors": [
    {
      "bufferView": 2,
      "componentType": 5126,
      "count": 65532,
      "max": [
        9.553529739379883,
        -0.9421891570091248,
        9.257977485656738
      ],
      "min": [
        -5.031125068664551,
        -27.570180892944336,
        -9.959014892578125
      ],
      "type": "VEC3"
    },
    {
      "bufferView": 2,
      "byteOffset": 786384,
      "componentType": 5126,
      "count": 65532,
      "max": [
        0.9999792575836182,
        1.0,
        0.9999969601631165
      ],
      "min": [
        -0.9999300837516785,
        -0.9999958872795105,
        -0.9998934864997864
      ],
      "type": "VEC3"
    },
    {
      "bufferView": 3,
      "componentType": 5126,
      "count": 65532,
      "max": [
        1.0,
        0.999998927116394,
        0.9804247617721558,
        -1.0
      ],
      "min": [
        -1.0,
        -0.9999926090240479,
        -0.9708630442619324,
        -1.0
      ],
      "type": "VEC4"
    },
    {
      "bufferView": 1,
      "componentType": 5126,
      "count": 65532,
      "max": [
        0.9996690154075623,
        0.9997559785842896
      ],
      "min": [
        0.00024399999529123306,
        0.0002460000105202198
      ],
      "type": "VEC2"
    },
    {
      "bufferView": 0,
      "componentType": 5125,
      "count": 315966,
      "type": "SCALAR"
    },
    {
      "bufferView": 2,
      "byteOffset": 1572768,
      "componentType": 5126,
      "count": 8979,
      "max": [
        9.553529739379883,
        -0.9406536221504211,
        9.257977485656738
      ],
      "min": [
        -5.016062259674072,
        -23.49790382385254,
        -9.947952270507813
      ],
      "type": "VEC3"
    },
    {
      "bufferView": 2,
      "byteOffset": 1680516,
      "componentType": 5126,
      "count": 8979,
      "max": [
        0.9994339346885681,
        1.0,
        0.9999869465827942
      ],
      "min": [
        -0.9998326301574707,
        -0.9999853372573853,
        -0.999129593372345
      ],
      "type": "VEC3"
    },
    {
      "bufferView": 3,
      "byteOffset": 1048512,
      "componentType": 5126,
      "count": 8979,
      "max": [
        0.9999998211860657,
        0.9997393488883972,
        0.944479763507843,
        -1.0
      ],
      "min": [
        -1.0,
        -0.999833881855011,
        -0.9164077043533325,
        -1.0
      ],
      "type": "VEC4"
    },
    {
      "bufferView": 1,
      "byteOffset": 524256,
      "componentType": 5126,
      "count": 8979,
      "max": [
        0.9996520280838013,
        0.9694110155105591
      ],
      "min": [
        0.00024399999529123306,
        0.0002699999895412475
      ],
      "type": "VEC2"
    },
    {
      "bufferView": 0,
      "byteOffset": 1263864,
      "componentType": 5125,
      "count": 29082,
      "type": "SCALAR"
    }
  ],
  "asset": {
    "extras": {
      "author": "Fundacja Collect (https://sketchfab.com/wirtualnemuzeawroclawia)",
      "license": "CC-BY-4.0 (http://creativecommons.org/licenses/by/4.0/)",
      "source": "https://sketchfab.com/3d-models/medytujacy-budda-367e3c3ba6514624acce5dd96fc83d4e",
      "title": "Medytujący Budda"
    },
    "generator": "Sketchfab-12.66.0",
    "version": "2.0"
  },
  "bufferViews": [
    {
      "buffer": 0,
      "byteLength": 1380192,
      "name": "floatBufferViews",
      "target": 34963
    },
    {
      "buffer": 0,
      "byteLength": 596088,
      "byteOffset": 1380192,
      "byteStride": 8,
      "name": "floatBufferViews",
      "target": 34962
    },
    {
      "buffer": 0,
      "byteLength": 1788264,
      "byteOffset": 1976280,
      "byteStride": 12,
      "name": "floatBufferViews",
      "target": 34962
    },
    {
      "buffer": 0,
      "byteLength": 1192176,
      "byteOffset": 3764544,
      "byteStride": 16,
      "name": "floatBufferViews",
      "target": 34962
    }
  ],
  "buffers": [
    {
      "byteLength": 4956720,
      "uri": "scene.bin"
    }
  ],
  "images": [
    {
      "uri": "textures/budda_Model_10_baseColor.png"
    },
    {
      "uri": "textures/budda_Model_10_normal.png"
    }
  ],
  "materials": [
    {
      "doubleSided": true,
      "name": "budda_Model_10",
      "normalTexture": {
        "index": 1
      },
      "pbrMetallicRoughness": {
        "baseColorTexture": {
          "index": 0
        },
        "metallicFactor": 0.6935761979453934,
        "roughnessFactor": 0.5721889848744183
      }
    }
  ],
  "meshes": [
    {
      "name": "Object_0",
      "primitives": [
        {
          "attributes": {
            "NORMAL": 1,
            "POSITION": 0,
            "TANGENT": 2,
            "TEXCOORD_0": 3
          },
          "indices": 4,
          "material": 0,
          "mode": 4
        }
      ]
    },
    {
      "name": "Object_1",
      "primitives": [
        {
          "attributes": {
            "NORMAL": 6,
            "POSITION": 5,
            "TANGENT": 7,
            "TEXCOORD_0": 8
          },
          "indices": 9,
          "material": 0,
          "mode": 4
        }
      ]
    }
  ],
  "nodes": [
    {
      "children": [
        1
      ],
      "matrix": [
        -2.220446049250313e-16,
        -1.1102230246251565e-16,
        1.0,
        0.0,
        1.1102230246251565e-16,
        -1.0,
        0.0,
        0.0,
        1.0,
        -2.465190328815662e-32,
        1.1102230246251565e-16,
        0.0,
        0.0,
        0.0,
        0.0,
        1.0
      ],
      "name": "Sketchfab_model"
    },
    {
      "children": [
        2,
        3
      ],
      "name": "budda_Model_10_0000000.obj.cleaner.materialmerger.gles"
    },
    {
      "mesh": 0,
      "name": "Object_2"
    },
    {
      "mesh": 1,
      "name": "Object_3"
    }
  ],
  "samplers": [
    {
      "magFilter": 9729,
      "minFilter": 9987,
      "wrapS": 10497,
      "wrapT": 10497
    }
  ],
  "scene": 0,
  "scenes": [
    {
      "name": "Sketchfab_Scene",
      "nodes": [
        0
      ]
    }
  ],
  "textures": [
    {
      "sampler": 0,
      "source": 0
    },
    {
      "sampler": 0,
      "source": 1
    }
  ]
}
